# xmcd
#
# Track frame offsets: 
#        150
#        13278
#        24903
#        39566
#        52615
#        64352
#        78308
#        91993
#        103803
#        121053
#        138668
#        150181
#        165024
#
# Disc length: 2400 seconds
#
# Revision: 0
# Processed by: cddbd v1.5.2PL0 Copyright (c) Steve Scherf et al.
# Submitted via: ExactAudioCopy v0.95b3
#
DISCID=91095e0d
DTITLE=The Grascals - The Grascals
DYEAR=2005
DGENRE=Bluegrass
TTITLE0=Leavings Heavy On My Mind
TTITLE1=Mourning Dove
TTITLE2=Me and John and Paul
TTITLE3=Bevans Lake Crossing
TTITLE4=Some Things I Want To Sing About
TTITLE5=Teardrops in My Eyes
TTITLE6=Where I Come From 
TTITLE7=My Saro Jane
TTITLE8=Where Corn Don't Grow
TTITLE9=Sally Goodin
TTITLE10=Lonely Street
TTITLE11=Viva Las Vegas
TTITLE12=Sweet By and By
EXTD=
EXTT0=
EXTT1=
EXTT2=
EXTT3=
EXTT4=
EXTT5=
EXTT6=
EXTT7=
EXTT8=
EXTT9=
EXTT10=
EXTT11=
EXTT12=
PLAYORDER=
